<?xml version="1.0" encoding="UTF-8" standalone="no"?>
<svg xmlns="http://www.w3.org/2000/svg" width="802.65625" height="288.84375">
  <path d="m 1.5,1.5 0,242 48.0625,0 c 26.329253,-0.0181 49.480799,-8.26178 49.625,-41.09375 l 0,-161.4375 C 99.27223,12.857091 77.846946,1.542081 48.46875,1.5 L 1.5,1.5 z m 546.625,0 0,242 33.78125,0 0,-15.75 c 3.25037,11.10966 11.58531,18.77498 24.8125,18.5625 20.71428,0.38658 23.81042,-13.67909 23.90625,-28.90625 l 0,-143.59375 c -0.444,-15.558976 -6.21202,-26.057378 -23.21875,-25.9375 -12.13387,-0.119607 -20.41085,4.532501 -25.5,15.9375 l 0,-62.3125 -33.78125,0 z m 179.28125,0 0,242 33.9375,0 0,-242 -33.9375,0 z M 769,1.5 c 0,0 -1.42858,242 0,242 l 32.15625,0 0,-242 L 769,1.5 z M 38.84375,30.59375 c 8.689513,0.272344 21.729579,-1.054831 21.59375,10.375 l 0,161.0625 c 0.04021,11.03031 -10.296119,12.57618 -21.59375,12.15625 l 0,-183.59375 z m 196.09375,16.4375 c -28.07991,0.12311 -41.31976,14.071561 -41.34375,32.15625 l 0,41.40625 33.75,0 0,-41.40625 c 0.17183,-10.024163 15.45376,-10.560412 15.375,0 l 0,25.71875 c -0.26381,5 -6.62458,15 -21.78125,22.5 -22.38958,10.57164 -25.43305,22.38839 -27.34375,34.28125 l 0,55.34375 c -0.008,23.59332 11.52937,29.02939 22.6875,28.65625 11.85695,-0.39651 19.32972,-4.13667 26.4375,-16.875 l 0,14.40625 35.71875,0 c -2.12934,-4.50409 -2.32372,-10.24307 -2.5,-15.125 l 0,-148.90625 c -0.12038,-23.696889 -18.52044,-32.029708 -41,-32.15625 z m 443.625,0 c -28.07991,0.12311 -41.31976,14.071562 -41.34375,32.15625 l 0,41.40625 33.75,0 0,-41.40625 c 0.17183,-10.024163 15.45376,-10.560412 15.375,0 l 0,25.71875 c -0.26381,5 -6.62458,15 -21.78125,22.5 -22.38958,10.57164 -25.43305,22.38839 -27.34375,34.28125 l 0,55.34375 c -0.008,23.59332 11.52937,29.02939 22.6875,28.65625 11.85695,-0.39651 19.32972,-4.13667 26.4375,-16.875 l 0,14.6875 35.71875,0 c -2.12934,-4.50409 -2.32372,-10.52432 -2.5,-15.40625 l 0,-148.90625 c -0.12038,-23.696889 -18.52044,-32.029707 -41,-32.15625 z M 162.15625,48 c -13.39739,0.161147 -18.63684,8.492124 -23.78125,16.90625 l 0,-14.28125 -32.9375,0 c 0,0 -1.78571,192.875 0,192.875 l 32.9375,0 0,-160.40625 c -0.10646,-9.783759 15.65693,-10.047135 15.8125,0 l 0,67.6875 33.40625,0 0,-78.75 C 187.57505,54.602769 178.47213,47.827376 163.46875,48 c -0.44945,-0.01208 -0.88033,-0.0052 -1.3125,0 z m 144.15625,0.03125 c -16.91024,-0.05662 -23.4478,9.184387 -23.375,24 l 0,120.71875 c 0.0683,19.76275 6.7455,30.2647 23.6875,30.25 15.84562,-0.20482 19.98732,-9.02923 24.71875,-17.40625 l 0,47.15625 c -0.0952,11.26392 -14.6644,11.25015 -14.84375,0 l 0,-23.40625 -33.5625,0 0,26.8125 c 0.68378,22.41364 17.51747,31.04346 41.1875,31.1875 29.89457,-0.024 40.73982,-18.69085 40.96875,-31.1875 l 0,-205.53125 -33.75,0 0,14.625 C 327.982,55.097491 321.5521,48.223898 306.3125,48.03125 z m 213.40625,0.125 c -16.88641,0.09782 -22.04178,8.346967 -26.59375,16.75 l 0,-14.28125 -32.5,0 0,192.875 33.5625,0 0,-160.34375 c -0.0631,-10.354077 15.01148,-9.975243 14.90625,0 l 0,160.34375 33.875,0 0,-162.53125 c -0.13063,-16.866693 -2.33223,-32.721977 -23.25,-32.8125 z M 413.125,48.875 C 382.47492,48.78271 371.64751,64.594553 371.5,80.4375 l 0,136.59375 c 0.34573,22.18751 18.0617,31.40922 41.625,31.6875 26.16313,-0.023 41.26426,-13.23727 41.59375,-31.6875 l 0,-136.59375 C 454.37814,59.419689 436.47306,48.78536 413.125,48.875 z m 0.0625,23.8125 c 3.68558,-0.01449 7.30515,2.740161 7.25,8.28125 l 0,135.875 c 0.13931,10.95548 -14.69035,10.65646 -14.8125,0 l 0,-135.875 c 0.13426,-5.483147 3.87692,-8.266764 7.5625,-8.28125 z m -89.125,2.5625 c 3.68558,0.0062 7.33639,2.102098 7.28125,6.25 l 0,103.40625 c 0.27226,11.06454 -14.85582,10.38202 -14.84375,0 L 316.5,81.5 c 0.13426,-4.172729 3.87692,-6.256207 7.5625,-6.25 z m 265.53125,0.15625 c 3.83736,0.05737 7.65089,2.207806 7.625,6.28125 l 0,128.21875 c 0.0137,11.23034 -15.26665,11.26921 -15.3125,0 l 0,-128.21875 c -0.011,-4.302909 3.85014,-6.338616 7.6875,-6.28125 z m 96.75,68.0625 0,66.25 c 0.005,11.55182 -15.26324,12.24806 -15.375,0 l 0,-49.125 c 0.0148,-6.00057 8.56696,-13.19906 15.375,-17.125 z m -443.8125,0.84375 0,66.25 c 0.005,11.55182 -15.26324,12.24806 -15.375,0 l 0,-49.125 c 0.0148,-6.00057 8.56696,-13.19906 15.375,-17.125 z" style="fill:#000000;" />
</svg>
